<?xml version="1.0" encoding="us-ascii" standalone="no"?><svg xmlns="http://www.w3.org/2000/svg" xmlns:xlink="http://www.w3.org/1999/xlink" contentStyleType="text/css" height="682.2917px" preserveAspectRatio="none" style="width:1466px;height:682px;" version="1.1" viewBox="0 0 1466 682" width="1466.6667px" zoomAndPan="magnify"><defs><linearGradient id="g1nl1nyyk6tmwy0" x1="50%" x2="50%" y1="0%" y2="100%"><stop offset="0%" stop-color="#4DABF5"/><stop offset="100%" stop-color="#2196F3"/></linearGradient><filter height="300%" id="f1nl1nyyk6tmwy" width="300%" x="-1" y="-1"><feGaussianBlur result="blurOut" stdDeviation="2.0833333333333335"/><feColorMatrix in="blurOut" result="blurOut2" type="matrix" values="0 0 0 0 0 0 0 0 0 0 0 0 0 0 0 0 0 0 .4 0"/><feOffset dx="4.166666666666667" dy="4.166666666666667" in="blurOut2" result="blurOut3"/><feBlend in="SourceGraphic" in2="blurOut3" mode="normal"/></filter><linearGradient id="g1nl1nyyk6tmwy1" x1="50%" x2="50%" y1="0%" y2="100%"><stop offset="0%" stop-color="#2196F3"/><stop offset="100%" stop-color="#1A78C2"/></linearGradient><linearGradient id="g1nl1nyyk6tmwy2" x1="50%" x2="50%" y1="0%" y2="100%"><stop offset="0%" stop-color="#B052C0"/><stop offset="100%" stop-color="#9C27B0"/></linearGradient></defs><g><!--class AtomicAwareNodeBlockingServiceFactoryAutoConfiguration--><g id="elem_AtomicAwareNodeBlockingServiceFactoryAutoConfiguration"><rect codeLine="2" fill="url(#g1nl1nyyk6tmwy0)" filter="url(#f1nl1nyyk6tmwy)" height="125.7406" id="AtomicAwareNodeBlockingServiceFactoryAutoConfiguration" rx="4.1667" ry="4.1667" style="stroke:#2196F3;stroke-width:1.0416666666666667;" width="535.4167" x="872.3958" y="191.6667"/><rect fill="url(#g1nl1nyyk6tmwy1)" height="109.0739" rx="4.1667" ry="4.1667" style="stroke:url(#g1nl1nyyk6tmwy1);stroke-width:1.0416666666666667;" width="535.4167" x="872.3958" y="191.6667"/><rect fill="url(#g1nl1nyyk6tmwy1)" height="4.1667" style="stroke:url(#g1nl1nyyk6tmwy1);stroke-width:1.0416666666666667;" width="535.4167" x="872.3958" y="296.5739"/><rect codeLine="2" fill="none" height="125.7406" id="AtomicAwareNodeBlockingServiceFactoryAutoConfiguration" rx="4.1667" ry="4.1667" style="stroke:#2196F3;stroke-width:1.0416666666666667;" width="535.4167" x="872.3958" y="191.6667"/><ellipse cx="886.9792" cy="246.2036" fill="none" rx="10.4167" ry="10.4167" style="stroke:#1A78C2;stroke-width:1.0416666666666667;"/><path d="M888.916,242.8182 C888.2324,242.4927 887.793,242.395 887.1419,242.395 C885.2214,242.395 883.7402,243.9087 883.7402,245.9106 L883.7402,246.7407 C883.7402,248.645 885.3027,250.0285 887.4186,250.0285 C888.3138,250.0285 889.1764,249.8006 889.7135,249.3937 C890.153,249.1007 890.3809,248.7752 890.3809,248.4823 C890.3809,248.1567 890.0879,247.8638 889.7624,247.8638 C889.5996,247.8638 889.4531,247.9289 889.3066,248.0591 C888.9648,248.4172 888.9648,248.4172 888.8346,248.4823 C888.5254,248.6776 888.0208,248.7752 887.4512,248.7752 C885.9538,248.7752 884.9935,247.9614 884.9935,246.7082 L884.9935,245.9106 C884.9935,244.5923 885.9212,243.632 887.1908,243.632 C887.6139,243.632 888.0697,243.7459 888.4115,243.9412 C888.7695,244.1366 888.8997,244.2993 888.9648,244.5923 C889.0137,244.9015 889.0299,244.9829 889.1276,245.0806 C889.2253,245.1945 889.4043,245.2596 889.5671,245.2596 C889.7786,245.2596 889.9577,245.1619 890.0879,244.9992 C890.1693,244.8853 890.2018,244.755 890.2018,244.4295 L890.2018,243.3879 C890.2018,243.0786 890.1855,242.981 890.1042,242.867 C889.9902,242.6717 889.7949,242.5578 889.5671,242.5578 C889.3555,242.5578 889.209,242.6392 889.0462,242.867 L888.916,242.8182 Z " fill="#FFFFFF"/><text fill="#222222" font-family="Verdana" font-size="12.5" font-style="italic" lengthAdjust="spacing" textLength="111.4583" x="1096.875" y="218.8944">&#171;@Configuration&#187;</text><text fill="#222222" font-family="Verdana" font-size="12.5" font-style="italic" lengthAdjust="spacing" textLength="487.5" x="908.8542" y="233.4452">&#171;@AutoConfigureAfter(NodeBlockingServiceFactoryAutoConfiguration::class)&#187;</text><text fill="#222222" font-family="Verdana" font-size="12.5" font-style="italic" lengthAdjust="spacing" textLength="403.125" x="951.0417" y="247.996">&#171;@AutoConfigureBefore(NodeServicesAutoConfiguration::class)&#187;</text><text fill="#FFFFFF" font-family="Verdana" font-size="11.4583" lengthAdjust="spacing" textLength="352.0833" x="976.5625" y="282.4132">AtomicAwareNodeBlockingServiceFactoryAutoConfiguration</text><line style="stroke:#2196F3;stroke-width:1.0416666666666667;" x1="873.4375" x2="1406.7708" y1="300.7406" y2="300.7406"/><line style="stroke:#2196F3;stroke-width:1.0416666666666667;" x1="873.4375" x2="1406.7708" y1="309.0739" y2="309.0739"/></g><!--class NodeBlockingServiceFactoryAutoConfiguration--><g id="elem_NodeBlockingServiceFactoryAutoConfiguration"><rect codeLine="3" fill="url(#g1nl1nyyk6tmwy0)" filter="url(#f1nl1nyyk6tmwy)" height="111.1898" id="NodeBlockingServiceFactoryAutoConfiguration" rx="4.1667" ry="4.1667" style="stroke:#2196F3;stroke-width:1.0416666666666667;" width="451.0417" x="914.5833" y="17.7083"/><rect fill="url(#g1nl1nyyk6tmwy1)" height="94.5231" rx="4.1667" ry="4.1667" style="stroke:url(#g1nl1nyyk6tmwy1);stroke-width:1.0416666666666667;" width="451.0417" x="914.5833" y="17.7083"/><rect fill="url(#g1nl1nyyk6tmwy1)" height="4.1667" style="stroke:url(#g1nl1nyyk6tmwy1);stroke-width:1.0416666666666667;" width="451.0417" x="914.5833" y="108.0648"/><rect codeLine="3" fill="none" height="111.1898" id="NodeBlockingServiceFactoryAutoConfiguration" rx="4.1667" ry="4.1667" style="stroke:#2196F3;stroke-width:1.0416666666666667;" width="451.0417" x="914.5833" y="17.7083"/><ellipse cx="929.1667" cy="64.9699" fill="none" rx="10.4167" ry="10.4167" style="stroke:#1A78C2;stroke-width:1.0416666666666667;"/><path d="M931.1035,61.5845 C930.4199,61.259 929.9805,61.1613 929.3294,61.1613 C927.4089,61.1613 925.9277,62.675 925.9277,64.6769 L925.9277,65.507 C925.9277,67.4113 927.4902,68.7948 929.6061,68.7948 C930.5013,68.7948 931.3639,68.5669 931.901,68.16 C932.3405,67.867 932.5684,67.5415 932.5684,67.2485 C932.5684,66.923 932.2754,66.63 931.9499,66.63 C931.7871,66.63 931.6406,66.6951 931.4941,66.8254 C931.1523,67.1834 931.1523,67.1834 931.0221,67.2485 C930.7129,67.4438 930.2083,67.5415 929.6387,67.5415 C928.1413,67.5415 927.181,66.7277 927.181,65.4744 L927.181,64.6769 C927.181,63.3586 928.1087,62.3983 929.3783,62.3983 C929.8014,62.3983 930.2572,62.5122 930.599,62.7075 C930.957,62.9028 931.0872,63.0656 931.1523,63.3586 C931.2012,63.6678 931.2174,63.7492 931.3151,63.8468 C931.4128,63.9608 931.5918,64.0259 931.7546,64.0259 C931.9661,64.0259 932.1452,63.9282 932.2754,63.7655 C932.3568,63.6515 932.3893,63.5213 932.3893,63.1958 L932.3893,62.1541 C932.3893,61.8449 932.373,61.7472 932.2917,61.6333 C932.1777,61.438 931.9824,61.3241 931.7546,61.3241 C931.543,61.3241 931.3965,61.4054 931.2337,61.6333 L931.1035,61.5845 Z " fill="#FFFFFF"/><text fill="#222222" font-family="Verdana" font-size="12.5" font-style="italic" lengthAdjust="spacing" textLength="111.4583" x="1096.875" y="44.9361">&#171;@Configuration&#187;</text><text fill="#222222" font-family="Verdana" font-size="12.5" font-style="italic" lengthAdjust="spacing" textLength="403.125" x="951.0417" y="59.4869">&#171;@AutoConfigureBefore(NodeServicesAutoConfiguration::class)&#187;</text><text fill="#FFFFFF" font-family="Verdana" font-size="11.4583" lengthAdjust="spacing" textLength="273.9583" x="1015.625" y="93.9041">NodeBlockingServiceFactoryAutoConfiguration</text><line style="stroke:#2196F3;stroke-width:1.0416666666666667;" x1="915.625" x2="1364.5833" y1="112.2314" y2="112.2314"/><line style="stroke:#2196F3;stroke-width:1.0416666666666667;" x1="915.625" x2="1364.5833" y1="120.5648" y2="120.5648"/></g><!--class NodeServicesAutoConfiguration--><g id="elem_NodeServicesAutoConfiguration"><rect codeLine="4" fill="url(#g1nl1nyyk6tmwy0)" filter="url(#f1nl1nyyk6tmwy)" height="96.639" id="NodeServicesAutoConfiguration" rx="4.1667" ry="4.1667" style="stroke:#2196F3;stroke-width:1.0416666666666667;" width="240.625" x="1019.7917" y="568.75"/><rect fill="url(#g1nl1nyyk6tmwy1)" height="79.9723" rx="4.1667" ry="4.1667" style="stroke:url(#g1nl1nyyk6tmwy1);stroke-width:1.0416666666666667;" width="240.625" x="1019.7917" y="568.75"/><rect fill="url(#g1nl1nyyk6tmwy1)" height="4.1667" style="stroke:url(#g1nl1nyyk6tmwy1);stroke-width:1.0416666666666667;" width="240.625" x="1019.7917" y="644.5557"/><rect codeLine="4" fill="none" height="96.639" id="NodeServicesAutoConfiguration" rx="4.1667" ry="4.1667" style="stroke:#2196F3;stroke-width:1.0416666666666667;" width="240.625" x="1019.7917" y="568.75"/><ellipse cx="1034.375" cy="608.7362" fill="none" rx="10.4167" ry="10.4167" style="stroke:#1A78C2;stroke-width:1.0416666666666667;"/><path d="M1036.3118,605.3507 C1035.6283,605.0252 1035.1888,604.9276 1034.5378,604.9276 C1032.6172,604.9276 1031.1361,606.4412 1031.1361,608.4432 L1031.1361,609.2733 C1031.1361,611.1776 1032.6986,612.561 1034.8145,612.561 C1035.7096,612.561 1036.5723,612.3332 1037.1094,611.9263 C1037.5488,611.6333 1037.7767,611.3078 1037.7767,611.0148 C1037.7767,610.6893 1037.4837,610.3963 1037.1582,610.3963 C1036.9954,610.3963 1036.849,610.4614 1036.7025,610.5916 C1036.3607,610.9497 1036.3607,610.9497 1036.2305,611.0148 C1035.9212,611.2101 1035.4167,611.3078 1034.847,611.3078 C1033.3496,611.3078 1032.3893,610.494 1032.3893,609.2407 L1032.3893,608.4432 C1032.3893,607.1248 1033.3171,606.1646 1034.5866,606.1646 C1035.0098,606.1646 1035.4655,606.2785 1035.8073,606.4738 C1036.1654,606.6691 1036.2956,606.8319 1036.3607,607.1248 C1036.4095,607.4341 1036.4258,607.5155 1036.5234,607.6131 C1036.6211,607.7271 1036.8001,607.7922 1036.9629,607.7922 C1037.1745,607.7922 1037.3535,607.6945 1037.4837,607.5317 C1037.5651,607.4178 1037.5977,607.2876 1037.5977,606.9621 L1037.5977,605.9204 C1037.5977,605.6112 1037.5814,605.5135 1037.5,605.3996 C1037.3861,605.2043 1037.1908,605.0903 1036.9629,605.0903 C1036.7513,605.0903 1036.6048,605.1717 1036.4421,605.3996 L1036.3118,605.3507 Z " fill="#FFFFFF"/><text fill="#222222" font-family="Verdana" font-size="12.5" font-style="italic" lengthAdjust="spacing" textLength="111.4583" x="1096.875" y="595.9778">&#171;@Configuration&#187;</text><text fill="#FFFFFF" font-family="Verdana" font-size="11.4583" lengthAdjust="spacing" textLength="188.5417" x="1058.3333" y="630.395">NodeServicesAutoConfiguration</text><line style="stroke:#2196F3;stroke-width:1.0416666666666667;" x1="1020.8333" x2="1259.375" y1="648.7223" y2="648.7223"/><line style="stroke:#2196F3;stroke-width:1.0416666666666667;" x1="1020.8333" x2="1259.375" y1="657.0557" y2="657.0557"/></g><!--class CustomNodeBlockingFactoryConfiguration--><g id="elem_CustomNodeBlockingFactoryConfiguration"><rect codeLine="5" fill="url(#g1nl1nyyk6tmwy0)" filter="url(#f1nl1nyyk6tmwy)" height="125.7406" id="CustomNodeBlockingFactoryConfiguration" rx="4.1667" ry="4.1667" style="stroke:#2196F3;stroke-width:1.0416666666666667;" width="617.7083" x="831.25" y="380.2083"/><rect fill="url(#g1nl1nyyk6tmwy1)" height="109.0739" rx="4.1667" ry="4.1667" style="stroke:url(#g1nl1nyyk6tmwy1);stroke-width:1.0416666666666667;" width="617.7083" x="831.25" y="380.2083"/><rect fill="url(#g1nl1nyyk6tmwy1)" height="4.1667" style="stroke:url(#g1nl1nyyk6tmwy1);stroke-width:1.0416666666666667;" width="617.7083" x="831.25" y="485.1156"/><rect codeLine="5" fill="none" height="125.7406" id="CustomNodeBlockingFactoryConfiguration" rx="4.1667" ry="4.1667" style="stroke:#2196F3;stroke-width:1.0416666666666667;" width="617.7083" x="831.25" y="380.2083"/><ellipse cx="845.8333" cy="434.7453" fill="none" rx="10.4167" ry="10.4167" style="stroke:#1A78C2;stroke-width:1.0416666666666667;"/><path d="M847.7702,431.3599 C847.0866,431.0343 846.6471,430.9367 845.9961,430.9367 C844.0755,430.9367 842.5944,432.4504 842.5944,434.4523 L842.5944,435.2824 C842.5944,437.1867 844.1569,438.5701 846.2728,438.5701 C847.168,438.5701 848.0306,438.3423 848.5677,437.9354 C849.0072,437.6424 849.235,437.3169 849.235,437.0239 C849.235,436.6984 848.9421,436.4054 848.6165,436.4054 C848.4538,436.4054 848.3073,436.4705 848.1608,436.6007 C847.819,436.9588 847.819,436.9588 847.6888,437.0239 C847.3796,437.2192 846.875,437.3169 846.3053,437.3169 C844.8079,437.3169 843.8477,436.5031 843.8477,435.2498 L843.8477,434.4523 C843.8477,433.134 844.7754,432.1737 846.0449,432.1737 C846.4681,432.1737 846.9238,432.2876 847.2656,432.4829 C847.6237,432.6782 847.7539,432.841 847.819,433.134 C847.8678,433.4432 847.8841,433.5246 847.9818,433.6222 C848.0794,433.7362 848.2585,433.8013 848.4212,433.8013 C848.6328,433.8013 848.8118,433.7036 848.9421,433.5409 C849.0234,433.4269 849.056,433.2967 849.056,432.9712 L849.056,431.9295 C849.056,431.6203 849.0397,431.5226 848.9583,431.4087 C848.8444,431.2134 848.6491,431.0994 848.4212,431.0994 C848.2096,431.0994 848.0632,431.1808 847.9004,431.4087 L847.7702,431.3599 Z " fill="#FFFFFF"/><text fill="#222222" font-family="Verdana" font-size="12.5" font-style="italic" lengthAdjust="spacing" textLength="111.4583" x="1096.875" y="407.4361">&#171;@Configuration&#187;</text><text fill="#222222" font-family="Verdana" font-size="12.5" font-style="italic" lengthAdjust="spacing" textLength="403.125" x="951.0417" y="421.9869">&#171;@AutoConfigureBefore(NodeServicesAutoConfiguration::class)&#187;</text><text fill="#222222" font-family="Verdana" font-size="12.5" font-style="italic" lengthAdjust="spacing" textLength="569.7917" x="867.7083" y="436.5377">&#171;@AutoConfigureAfter(AtomicAwareNodeBlockingServiceFactoryAutoConfiguration::class)&#187;</text><text fill="#FFFFFF" font-family="Verdana" font-size="11.4583" lengthAdjust="spacing" textLength="245.8333" x="1029.6875" y="470.9549">CustomNodeBlockingFactoryConfiguration</text><line style="stroke:#2196F3;stroke-width:1.0416666666666667;" x1="832.2917" x2="1447.9167" y1="489.2822" y2="489.2822"/><line style="stroke:#2196F3;stroke-width:1.0416666666666667;" x1="832.2917" x2="1447.9167" y1="497.6156" y2="497.6156"/></g><g id="elem_GMN9"><path d="M16.6667,54.6875 L16.6667,92.1549 A4.1667,4.1667 0 0 0 20.8333,96.3216 L873.9583,96.3216 A4.1667,4.1667 0 0 0 878.125,92.1549 L878.125,77.6042 L914.101,73.4375 L878.125,69.2708 L878.125,60.9375 L867.7083,50.5208 L20.8333,50.5208 A4.1667,4.1667 0 0 0 16.6667,54.6875 " fill="url(#g1nl1nyyk6tmwy2)" filter="url(#f1nl1nyyk6tmwy)" style="stroke:#9C27B0;stroke-width:1.0416666666666667;"/><path d="M867.7083,50.5208 L867.7083,58.8542 A2.0833,2.0833 0 0 0 869.7917,60.9375 L878.125,60.9375 L867.7083,50.5208 " fill="url(#g1nl1nyyk6tmwy2)" style="stroke:#9C27B0;stroke-width:1.0416666666666667;"/><text fill="#FFFFFF" font-family="Verdana" font-size="12.5" lengthAdjust="spacing" textLength="818.75" x="33.3333" y="77.7486">The configuration creates a client to the node by default and, based on the settings, wraps it if necessary (in rate limiter, caching)</text></g><g id="elem_GMN12"><path d="M234.375,235.9375 L234.375,273.4049 A4.1667,4.1667 0 0 0 238.5417,277.5716 L831.25,277.5716 A4.1667,4.1667 0 0 0 835.4167,273.4049 L835.4167,258.8542 L872.325,254.6875 L835.4167,250.5208 L835.4167,242.1875 L825,231.7708 L238.5417,231.7708 A4.1667,4.1667 0 0 0 234.375,235.9375 " fill="url(#g1nl1nyyk6tmwy2)" filter="url(#f1nl1nyyk6tmwy)" style="stroke:#9C27B0;stroke-width:1.0416666666666667;"/><path d="M825,231.7708 L825,240.1042 A2.0833,2.0833 0 0 0 827.0833,242.1875 L835.4167,242.1875 L825,231.7708 " fill="url(#g1nl1nyyk6tmwy2)" style="stroke:#9C27B0;stroke-width:1.0416666666666667;"/><text fill="#FFFFFF" font-family="Verdana" font-size="12.5" lengthAdjust="spacing" textLength="558.3333" x="251.0417" y="258.9986">Wraps the client after NodeBlockingServiceFactoryAutoConfiguration to work with atomic</text></g><g id="elem_GMN15"><path d="M304.1667,424.4792 L304.1667,461.9466 A4.1667,4.1667 0 0 0 308.3333,466.1133 L790.625,466.1133 A4.1667,4.1667 0 0 0 794.7917,461.9466 L794.7917,447.3958 L830.9708,443.2292 L794.7917,439.0625 L794.7917,430.7292 L784.375,420.3125 L308.3333,420.3125 A4.1667,4.1667 0 0 0 304.1667,424.4792 " fill="url(#g1nl1nyyk6tmwy2)" filter="url(#f1nl1nyyk6tmwy)" style="stroke:#9C27B0;stroke-width:1.0416666666666667;"/><path d="M784.375,420.3125 L784.375,428.6458 A2.0833,2.0833 0 0 0 786.4583,430.7292 L794.7917,430.7292 L784.375,420.3125 " fill="url(#g1nl1nyyk6tmwy2)" style="stroke:#9C27B0;stroke-width:1.0416666666666667;"/><text fill="#FFFFFF" font-family="Verdana" font-size="12.5" lengthAdjust="spacing" textLength="447.9167" x="320.8333" y="447.5403">User wrapper of NodeBlockingServiceFactory with settings of ordering</text></g><g id="elem_GMN18"><path d="M468.2292,598.4375 L468.2292,635.9049 A4.1667,4.1667 0 0 0 472.3958,640.0716 L978.6458,640.0716 A4.1667,4.1667 0 0 0 982.8125,635.9049 L982.8125,621.3542 L1019.5271,617.1875 L982.8125,613.0208 L982.8125,604.6875 L972.3958,594.2708 L472.3958,594.2708 A4.1667,4.1667 0 0 0 468.2292,598.4375 " fill="url(#g1nl1nyyk6tmwy2)" filter="url(#f1nl1nyyk6tmwy)" style="stroke:#9C27B0;stroke-width:1.0416666666666667;"/><path d="M972.3958,594.2708 L972.3958,602.6042 A2.0833,2.0833 0 0 0 974.4792,604.6875 L982.8125,604.6875 L972.3958,594.2708 " fill="url(#g1nl1nyyk6tmwy2)" style="stroke:#9C27B0;stroke-width:1.0416666666666667;"/><text fill="#FFFFFF" font-family="Verdana" font-size="12.5" lengthAdjust="spacing" textLength="471.875" x="484.8958" y="621.4986">Executed last in order to provide bean of services from the latest wrapper</text></g><!--link NodeBlockingServiceFactoryAutoConfiguration to AtomicAwareNodeBlockingServiceFactoryAutoConfiguration--><g id="link_NodeBlockingServiceFactoryAutoConfiguration_AtomicAwareNodeBlockingServiceFactoryAutoConfiguration"><path codeLine="7" d="M1140.1042,129.2083 C1140.1042,148.8646 1140.1042,164.9219 1140.1042,185.1677 " fill="none" id="NodeBlockingServiceFactoryAutoConfiguration-to-AtomicAwareNodeBlockingServiceFactoryAutoConfiguration" style="stroke:#2196F3;stroke-width:3.125;"/><polygon fill="#2196F3" points="1140.1042,191.4177,1144.2708,182.0427,1140.1042,186.2094,1135.9375,182.0427,1140.1042,191.4177" style="stroke:#2196F3;stroke-width:3.125;"/></g><!--link AtomicAwareNodeBlockingServiceFactoryAutoConfiguration to CustomNodeBlockingFactoryConfiguration--><g id="link_AtomicAwareNodeBlockingServiceFactoryAutoConfiguration_CustomNodeBlockingFactoryConfiguration"><path codeLine="8" d="M1140.1042,317.8167 C1140.1042,337.8396 1140.1042,353.7771 1140.1042,373.8031 " fill="none" id="AtomicAwareNodeBlockingServiceFactoryAutoConfiguration-to-CustomNodeBlockingFactoryConfiguration" style="stroke:#2196F3;stroke-width:3.125;"/><polygon fill="#2196F3" points="1140.1042,380.0531,1144.2708,370.6781,1140.1042,374.8448,1135.9375,370.6781,1140.1042,380.0531" style="stroke:#2196F3;stroke-width:3.125;"/></g><!--link CustomNodeBlockingFactoryConfiguration to NodeServicesAutoConfiguration--><g id="link_CustomNodeBlockingFactoryConfiguration_NodeServicesAutoConfiguration"><path codeLine="9" d="M1140.1042,506.3219 C1140.1042,526.8031 1140.1042,543 1140.1042,562.233 " fill="none" id="CustomNodeBlockingFactoryConfiguration-to-NodeServicesAutoConfiguration" style="stroke:#2196F3;stroke-width:3.125;"/><polygon fill="#2196F3" points="1140.1042,568.483,1144.2708,559.108,1140.1042,563.2747,1135.9375,559.108,1140.1042,568.483" style="stroke:#2196F3;stroke-width:3.125;"/></g><!--SRC=[jLJ1Ri8m3BttAxmRIF035K8hQ3lkiaqxczIX4Ms24fUElvzJYaGrGBJQJf4Y-xtdzvmySK4LGOLCtc2YIWm1CdQLKLc3djvSJglIgPsnstVo1wFe5HKxVyngTcjdjTdM7jau2ul5S-zYkOnNbtMKQU6P301DqrRIz0hMYhJpr89r8E5EUpVQ7yypMiFDwYkiNTkw3fBBvG2TydzMVIF4SKjoOKOo98lvV3boBPEHsnmP7xCyUJ2PY7ZNyoInZWbAqWnE3zhL53uA0jMxKvxaMGT0KAKXoy0EvBc35LpO724dZNN9W3QVmGO3vI1TiI8Giv266JGUzm4CWz5WIKG7z4UO60j28b9DPMGPPg1G5T8nxKymqleKlbhQAAMJZd7d1ZaYmpRExw0nN02sGlhY7amjXSyWrD68lPntSpcHdTsBjSxdyh7QxUzaR_y0ARnyawfPyf2t8jRR4qmSQU_TmSJu26r42XqAQE-grh0oPivdlJy0]--></g></svg>