<?xml version="1.0" encoding="us-ascii" standalone="no"?><svg xmlns="http://www.w3.org/2000/svg" xmlns:xlink="http://www.w3.org/1999/xlink" contentStyleType="text/css" height="1138.5417px" preserveAspectRatio="none" style="width:805px;height:1138px;" version="1.1" viewBox="0 0 805 1138" width="805.2083px" zoomAndPan="magnify"><defs><linearGradient id="ghsea4ke5rddk0" x1="50%" x2="50%" y1="0%" y2="100%"><stop offset="0%" stop-color="#4DABF5"/><stop offset="100%" stop-color="#2196F3"/></linearGradient><filter height="300%" id="fhsea4ke5rddk" width="300%" x="-1" y="-1"><feGaussianBlur result="blurOut" stdDeviation="2.0833333333333335"/><feColorMatrix in="blurOut" result="blurOut2" type="matrix" values="0 0 0 0 0 0 0 0 0 0 0 0 0 0 0 0 0 0 .4 0"/><feOffset dx="4.166666666666667" dy="4.166666666666667" in="blurOut2" result="blurOut3"/><feBlend in="SourceGraphic" in2="blurOut3" mode="normal"/></filter><linearGradient id="ghsea4ke5rddk1" x1="50%" x2="50%" y1="0%" y2="100%"><stop offset="0%" stop-color="#2196F3"/><stop offset="100%" stop-color="#1A78C2"/></linearGradient><linearGradient id="ghsea4ke5rddk2" x1="50%" x2="50%" y1="0%" y2="100%"><stop offset="0%" stop-color="#B052C0"/><stop offset="100%" stop-color="#9C27B0"/></linearGradient></defs><g><!--class NodeBlockingServiceFactory--><g id="elem_NodeBlockingServiceFactory"><rect codeLine="2" fill="url(#ghsea4ke5rddk0)" filter="url(#fhsea4ke5rddk)" height="334.6273" id="NodeBlockingServiceFactory" rx="4.1667" ry="4.1667" style="stroke:#2196F3;stroke-width:1.0416666666666667;" width="345.8333" x="90.625" y="786.4583"/><rect fill="url(#ghsea4ke5rddk1)" height="44.5882" rx="4.1667" ry="4.1667" style="stroke:url(#ghsea4ke5rddk1);stroke-width:1.0416666666666667;" width="345.8333" x="90.625" y="786.4583"/><rect fill="url(#ghsea4ke5rddk1)" height="4.1667" style="stroke:url(#ghsea4ke5rddk1);stroke-width:1.0416666666666667;" width="345.8333" x="90.625" y="826.8799"/><rect codeLine="2" fill="none" height="334.6273" id="NodeBlockingServiceFactory" rx="4.1667" ry="4.1667" style="stroke:#2196F3;stroke-width:1.0416666666666667;" width="345.8333" x="90.625" y="786.4583"/><ellipse cx="165.625" cy="808.7524" fill="none" rx="10.4167" ry="10.4167" style="stroke:#1A78C2;stroke-width:1.0416666666666667;"/><path d="M166.3574,806.3599 L167.6107,806.3599 C167.9036,806.3599 168.0339,806.3436 168.1478,806.2785 C168.3268,806.1646 168.4408,805.953 168.4408,805.7414 C168.4408,805.5298 168.3594,805.3507 168.1803,805.2205 C168.0501,805.1392 167.9525,805.1066 167.6107,805.1066 L163.8346,805.1066 C163.5091,805.1066 163.4277,805.1229 163.3138,805.2043 C163.1348,805.3182 163.0208,805.5298 163.0208,805.7414 C163.0208,805.9367 163.1185,806.1157 163.2813,806.2459 C163.3952,806.3436 163.5254,806.3599 163.8346,806.3599 L165.1042,806.3599 L165.1042,811.145 L163.8346,811.145 C163.5091,811.145 163.4277,811.1613 163.3138,811.2427 C163.1348,811.3403 163.0208,811.5682 163.0208,811.7798 C163.0208,811.9588 163.1185,812.1541 163.2813,812.2681 C163.3952,812.3657 163.5417,812.3983 163.8346,812.3983 L167.6107,812.3983 C168.1641,812.3983 168.4408,812.1867 168.4408,811.7798 C168.4408,811.5682 168.3594,811.3892 168.1803,811.259 C168.0501,811.1776 167.9525,811.145 167.6107,811.145 L166.3574,811.145 L166.3574,806.3599 Z " fill="#FFFFFF"/><text fill="#FFFFFF" font-family="Verdana" font-size="11.4583" font-style="italic" lengthAdjust="spacing" textLength="166.6667" x="195.8333" y="812.7192">NodeBlockingServiceFactory</text><line style="stroke:#2196F3;stroke-width:1.0416666666666667;" x1="91.6667" x2="435.4167" y1="831.0465" y2="831.0465"/><line style="stroke:#2196F3;stroke-width:1.0416666666666667;" x1="91.6667" x2="435.4167" y1="839.3799" y2="839.3799"/><text fill="#FFFFFF" font-family="Verdana" font-size="11.4583" lengthAdjust="spacing" textLength="133.3333" x="107.2917" y="864.5991">TxService txService();</text><text fill="#FFFFFF" font-family="Verdana" font-size="11.4583" lengthAdjust="spacing" textLength="297.9167" x="107.2917" y="898.7707">ContractService contractServiceContractService();</text><text fill="#FFFFFF" font-family="Verdana" font-size="11.4583" lengthAdjust="spacing" textLength="202.0833" x="107.2917" y="932.9422">AddressService addressService();</text><text fill="#FFFFFF" font-family="Verdana" font-size="11.4583" lengthAdjust="spacing" textLength="212.5" x="107.2917" y="967.1137">NodeInfoService nodeInfoService();</text><text fill="#FFFFFF" font-family="Verdana" font-size="11.4583" lengthAdjust="spacing" textLength="191.6667" x="107.2917" y="1001.2853">PrivacyService privacyService();</text><text fill="#FFFFFF" font-family="Verdana" font-size="11.4583" lengthAdjust="spacing" textLength="181.25" x="107.2917" y="1035.4568">BlocksService blocksService();</text><text fill="#FFFFFF" font-family="Verdana" font-size="11.4583" lengthAdjust="spacing" textLength="312.5" x="107.2917" y="1069.6284">BlockchainEventsService blockchainEventsService();</text><text fill="#FFFFFF" font-family="Verdana" font-size="11.4583" lengthAdjust="spacing" textLength="156.25" x="107.2917" y="1103.7999">UtilsService utilsService();</text></g><!--class LoadBalancingServiceFactory--><g id="elem_LoadBalancingServiceFactory"><rect fill="url(#ghsea4ke5rddk0)" filter="url(#fhsea4ke5rddk)" height="61.2549" id="LoadBalancingServiceFactory" rx="4.1667" ry="4.1667" style="stroke:#2196F3;stroke-width:1.0416666666666667;" width="226.0417" x="297.3958" y="376.0417"/><rect fill="url(#ghsea4ke5rddk1)" height="44.5882" rx="4.1667" ry="4.1667" style="stroke:url(#ghsea4ke5rddk1);stroke-width:1.0416666666666667;" width="226.0417" x="297.3958" y="376.0417"/><rect fill="url(#ghsea4ke5rddk1)" height="4.1667" style="stroke:url(#ghsea4ke5rddk1);stroke-width:1.0416666666666667;" width="226.0417" x="297.3958" y="416.4632"/><rect fill="none" height="61.2549" id="LoadBalancingServiceFactory" rx="4.1667" ry="4.1667" style="stroke:#2196F3;stroke-width:1.0416666666666667;" width="226.0417" x="297.3958" y="376.0417"/><ellipse cx="311.9792" cy="398.3358" fill="none" rx="10.4167" ry="10.4167" style="stroke:#1A78C2;stroke-width:1.0416666666666667;"/><path d="M313.916,394.9504 C313.2324,394.6248 312.793,394.5272 312.1419,394.5272 C310.2214,394.5272 308.7402,396.0409 308.7402,398.0428 L308.7402,398.8729 C308.7402,400.7772 310.3027,402.1606 312.4186,402.1606 C313.3138,402.1606 314.1764,401.9328 314.7135,401.5259 C315.153,401.2329 315.3809,400.9074 315.3809,400.6144 C315.3809,400.2889 315.0879,399.9959 314.7624,399.9959 C314.5996,399.9959 314.4531,400.061 314.3066,400.1912 C313.9648,400.5493 313.9648,400.5493 313.8346,400.6144 C313.5254,400.8097 313.0208,400.9074 312.4512,400.9074 C310.9538,400.9074 309.9935,400.0936 309.9935,398.8403 L309.9935,398.0428 C309.9935,396.7244 310.9212,395.7642 312.1908,395.7642 C312.6139,395.7642 313.0697,395.8781 313.4115,396.0734 C313.7695,396.2687 313.8997,396.4315 313.9648,396.7244 C314.0137,397.0337 314.0299,397.1151 314.1276,397.2127 C314.2253,397.3267 314.4043,397.3918 314.5671,397.3918 C314.7786,397.3918 314.9577,397.2941 315.0879,397.1313 C315.1693,397.0174 315.2018,396.8872 315.2018,396.5617 L315.2018,395.52 C315.2018,395.2108 315.1855,395.1131 315.1042,394.9992 C314.9902,394.8039 314.7949,394.6899 314.5671,394.6899 C314.3555,394.6899 314.209,394.7713 314.0462,394.9992 L313.916,394.9504 Z " fill="#FFFFFF"/><text fill="#FFFFFF" font-family="Verdana" font-size="11.4583" lengthAdjust="spacing" textLength="173.9583" x="335.9375" y="402.3026">LoadBalancingServiceFactory</text><line style="stroke:#2196F3;stroke-width:1.0416666666666667;" x1="298.4375" x2="522.3958" y1="420.6299" y2="420.6299"/><line style="stroke:#2196F3;stroke-width:1.0416666666666667;" x1="298.4375" x2="522.3958" y1="428.9632" y2="428.9632"/></g><!--class RateLimitingServiceFactory--><g id="elem_RateLimitingServiceFactory"><rect fill="url(#ghsea4ke5rddk0)" filter="url(#fhsea4ke5rddk)" height="61.2549" id="RateLimitingServiceFactory" rx="4.1667" ry="4.1667" style="stroke:#2196F3;stroke-width:1.0416666666666667;" width="213.5417" x="371.3542" y="501.0417"/><rect fill="url(#ghsea4ke5rddk1)" height="44.5882" rx="4.1667" ry="4.1667" style="stroke:url(#ghsea4ke5rddk1);stroke-width:1.0416666666666667;" width="213.5417" x="371.3542" y="501.0417"/><rect fill="url(#ghsea4ke5rddk1)" height="4.1667" style="stroke:url(#ghsea4ke5rddk1);stroke-width:1.0416666666666667;" width="213.5417" x="371.3542" y="541.4632"/><rect fill="none" height="61.2549" id="RateLimitingServiceFactory" rx="4.1667" ry="4.1667" style="stroke:#2196F3;stroke-width:1.0416666666666667;" width="213.5417" x="371.3542" y="501.0417"/><ellipse cx="385.9375" cy="523.3358" fill="none" rx="10.4167" ry="10.4167" style="stroke:#1A78C2;stroke-width:1.0416666666666667;"/><path d="M387.8743,519.9504 C387.1908,519.6248 386.7513,519.5272 386.1003,519.5272 C384.1797,519.5272 382.6986,521.0409 382.6986,523.0428 L382.6986,523.8729 C382.6986,525.7772 384.2611,527.1606 386.377,527.1606 C387.2721,527.1606 388.1348,526.9328 388.6719,526.5259 C389.1113,526.2329 389.3392,525.9074 389.3392,525.6144 C389.3392,525.2889 389.0462,524.9959 388.7207,524.9959 C388.5579,524.9959 388.4115,525.061 388.265,525.1912 C387.9232,525.5493 387.9232,525.5493 387.793,525.6144 C387.4837,525.8097 386.9792,525.9074 386.4095,525.9074 C384.9121,525.9074 383.9518,525.0936 383.9518,523.8403 L383.9518,523.0428 C383.9518,521.7244 384.8796,520.7642 386.1491,520.7642 C386.5723,520.7642 387.028,520.8781 387.3698,521.0734 C387.7279,521.2687 387.8581,521.4315 387.9232,521.7244 C387.972,522.0337 387.9883,522.1151 388.0859,522.2127 C388.1836,522.3267 388.3626,522.3918 388.5254,522.3918 C388.737,522.3918 388.916,522.2941 389.0462,522.1313 C389.1276,522.0174 389.1602,521.8872 389.1602,521.5617 L389.1602,520.52 C389.1602,520.2108 389.1439,520.1131 389.0625,519.9992 C388.9486,519.8039 388.7533,519.6899 388.5254,519.6899 C388.3138,519.6899 388.1673,519.7713 388.0046,519.9992 L387.8743,519.9504 Z " fill="#FFFFFF"/><text fill="#FFFFFF" font-family="Verdana" font-size="11.4583" lengthAdjust="spacing" textLength="161.4583" x="409.8958" y="527.3026">RateLimitingServiceFactory</text><line style="stroke:#2196F3;stroke-width:1.0416666666666667;" x1="372.3958" x2="583.8542" y1="545.6299" y2="545.6299"/><line style="stroke:#2196F3;stroke-width:1.0416666666666667;" x1="372.3958" x2="583.8542" y1="553.9632" y2="553.9632"/></g><!--class AtomicAwareNodeBlockingServiceFactory--><g id="elem_AtomicAwareNodeBlockingServiceFactory"><rect fill="url(#ghsea4ke5rddk0)" filter="url(#fhsea4ke5rddk)" height="61.2549" id="AtomicAwareNodeBlockingServiceFactory" rx="4.1667" ry="4.1667" style="stroke:#2196F3;stroke-width:1.0416666666666667;" width="298.9583" x="223.4375" y="251.0417"/><rect fill="url(#ghsea4ke5rddk1)" height="44.5882" rx="4.1667" ry="4.1667" style="stroke:url(#ghsea4ke5rddk1);stroke-width:1.0416666666666667;" width="298.9583" x="223.4375" y="251.0417"/><rect fill="url(#ghsea4ke5rddk1)" height="4.1667" style="stroke:url(#ghsea4ke5rddk1);stroke-width:1.0416666666666667;" width="298.9583" x="223.4375" y="291.4632"/><rect fill="none" height="61.2549" id="AtomicAwareNodeBlockingServiceFactory" rx="4.1667" ry="4.1667" style="stroke:#2196F3;stroke-width:1.0416666666666667;" width="298.9583" x="223.4375" y="251.0417"/><ellipse cx="238.0208" cy="273.3358" fill="none" rx="10.4167" ry="10.4167" style="stroke:#1A78C2;stroke-width:1.0416666666666667;"/><path d="M239.9577,269.9504 C239.2741,269.6248 238.8346,269.5272 238.1836,269.5272 C236.263,269.5272 234.7819,271.0409 234.7819,273.0428 L234.7819,273.8729 C234.7819,275.7772 236.3444,277.1606 238.4603,277.1606 C239.3555,277.1606 240.2181,276.9328 240.7552,276.5259 C241.1947,276.2329 241.4225,275.9074 241.4225,275.6144 C241.4225,275.2889 241.1296,274.9959 240.804,274.9959 C240.6413,274.9959 240.4948,275.061 240.3483,275.1912 C240.0065,275.5493 240.0065,275.5493 239.8763,275.6144 C239.5671,275.8097 239.0625,275.9074 238.4928,275.9074 C236.9954,275.9074 236.0352,275.0936 236.0352,273.8403 L236.0352,273.0428 C236.0352,271.7244 236.9629,270.7642 238.2324,270.7642 C238.6556,270.7642 239.1113,270.8781 239.4531,271.0734 C239.8112,271.2687 239.9414,271.4315 240.0065,271.7244 C240.0553,272.0337 240.0716,272.1151 240.1693,272.2127 C240.2669,272.3267 240.446,272.3918 240.6087,272.3918 C240.8203,272.3918 240.9993,272.2941 241.1296,272.1313 C241.2109,272.0174 241.2435,271.8872 241.2435,271.5617 L241.2435,270.52 C241.2435,270.2108 241.2272,270.1131 241.1458,269.9992 C241.0319,269.8039 240.8366,269.6899 240.6087,269.6899 C240.3971,269.6899 240.2507,269.7713 240.0879,269.9992 L239.9577,269.9504 Z " fill="#FFFFFF"/><text fill="#FFFFFF" font-family="Verdana" font-size="11.4583" lengthAdjust="spacing" textLength="246.875" x="261.9792" y="277.3026">AtomicAwareNodeBlockingServiceFactory</text><line style="stroke:#2196F3;stroke-width:1.0416666666666667;" x1="224.4792" x2="521.3542" y1="295.6299" y2="295.6299"/><line style="stroke:#2196F3;stroke-width:1.0416666666666667;" x1="224.4792" x2="521.3542" y1="303.9632" y2="303.9632"/></g><!--class CustomNodeBlockingServiceFactory--><g id="elem_CustomNodeBlockingServiceFactory"><rect fill="url(#ghsea4ke5rddk0)" filter="url(#fhsea4ke5rddk)" height="61.2549" id="CustomNodeBlockingServiceFactory" rx="4.1667" ry="4.1667" style="stroke:#2196F3;stroke-width:1.0416666666666667;" width="265.625" x="55.7292" y="126.0417"/><rect fill="url(#ghsea4ke5rddk1)" height="44.5882" rx="4.1667" ry="4.1667" style="stroke:url(#ghsea4ke5rddk1);stroke-width:1.0416666666666667;" width="265.625" x="55.7292" y="126.0417"/><rect fill="url(#ghsea4ke5rddk1)" height="4.1667" style="stroke:url(#ghsea4ke5rddk1);stroke-width:1.0416666666666667;" width="265.625" x="55.7292" y="166.4632"/><rect fill="none" height="61.2549" id="CustomNodeBlockingServiceFactory" rx="4.1667" ry="4.1667" style="stroke:#2196F3;stroke-width:1.0416666666666667;" width="265.625" x="55.7292" y="126.0417"/><ellipse cx="70.3125" cy="148.3358" fill="none" rx="10.4167" ry="10.4167" style="stroke:#1A78C2;stroke-width:1.0416666666666667;"/><path d="M72.2493,144.9504 C71.5658,144.6248 71.1263,144.5272 70.4753,144.5272 C68.5547,144.5272 67.0736,146.0409 67.0736,148.0428 L67.0736,148.8729 C67.0736,150.7772 68.6361,152.1606 70.752,152.1606 C71.6471,152.1606 72.5098,151.9328 73.0469,151.5259 C73.4863,151.2329 73.7142,150.9074 73.7142,150.6144 C73.7142,150.2889 73.4212,149.9959 73.0957,149.9959 C72.9329,149.9959 72.7865,150.061 72.64,150.1912 C72.2982,150.5493 72.2982,150.5493 72.168,150.6144 C71.8587,150.8097 71.3542,150.9074 70.7845,150.9074 C69.2871,150.9074 68.3268,150.0936 68.3268,148.8403 L68.3268,148.0428 C68.3268,146.7244 69.2546,145.7642 70.5241,145.7642 C70.9473,145.7642 71.403,145.8781 71.7448,146.0734 C72.1029,146.2687 72.2331,146.4315 72.2982,146.7244 C72.347,147.0337 72.3633,147.1151 72.4609,147.2127 C72.5586,147.3267 72.7376,147.3918 72.9004,147.3918 C73.112,147.3918 73.291,147.2941 73.4212,147.1313 C73.5026,147.0174 73.5352,146.8872 73.5352,146.5617 L73.5352,145.52 C73.5352,145.2108 73.5189,145.1131 73.4375,144.9992 C73.3236,144.8039 73.1283,144.6899 72.9004,144.6899 C72.6888,144.6899 72.5423,144.7713 72.3796,144.9992 L72.2493,144.9504 Z " fill="#FFFFFF"/><text fill="#FFFFFF" font-family="Verdana" font-size="11.4583" lengthAdjust="spacing" textLength="213.5417" x="94.2708" y="152.3026">CustomNodeBlockingServiceFactory</text><line style="stroke:#2196F3;stroke-width:1.0416666666666667;" x1="56.7708" x2="320.3125" y1="170.6299" y2="170.6299"/><line style="stroke:#2196F3;stroke-width:1.0416666666666667;" x1="56.7708" x2="320.3125" y1="178.9632" y2="178.9632"/></g><!--class ActualImplementation--><g id="elem_ActualImplementation"><rect fill="url(#ghsea4ke5rddk0)" filter="url(#fhsea4ke5rddk)" height="61.2549" id="ActualImplementation" rx="4.1667" ry="4.1667" style="stroke:#2196F3;stroke-width:1.0416666666666667;" width="182.2917" x="445.3125" y="626.0417"/><rect fill="url(#ghsea4ke5rddk1)" height="44.5882" rx="4.1667" ry="4.1667" style="stroke:url(#ghsea4ke5rddk1);stroke-width:1.0416666666666667;" width="182.2917" x="445.3125" y="626.0417"/><rect fill="url(#ghsea4ke5rddk1)" height="4.1667" style="stroke:url(#ghsea4ke5rddk1);stroke-width:1.0416666666666667;" width="182.2917" x="445.3125" y="666.4632"/><rect fill="none" height="61.2549" id="ActualImplementation" rx="4.1667" ry="4.1667" style="stroke:#2196F3;stroke-width:1.0416666666666667;" width="182.2917" x="445.3125" y="626.0417"/><ellipse cx="459.8958" cy="648.3358" fill="none" rx="10.4167" ry="10.4167" style="stroke:#1A78C2;stroke-width:1.0416666666666667;"/><path d="M461.8327,644.9504 C461.1491,644.6248 460.7096,644.5272 460.0586,644.5272 C458.138,644.5272 456.6569,646.0409 456.6569,648.0428 L456.6569,648.8729 C456.6569,650.7772 458.2194,652.1606 460.3353,652.1606 C461.2305,652.1606 462.0931,651.9328 462.6302,651.5259 C463.0697,651.2329 463.2975,650.9074 463.2975,650.6144 C463.2975,650.2889 463.0046,649.9959 462.679,649.9959 C462.5163,649.9959 462.3698,650.061 462.2233,650.1912 C461.8815,650.5493 461.8815,650.5493 461.7513,650.6144 C461.4421,650.8097 460.9375,650.9074 460.3678,650.9074 C458.8704,650.9074 457.9102,650.0936 457.9102,648.8403 L457.9102,648.0428 C457.9102,646.7244 458.8379,645.7642 460.1074,645.7642 C460.5306,645.7642 460.9863,645.8781 461.3281,646.0734 C461.6862,646.2687 461.8164,646.4315 461.8815,646.7244 C461.9303,647.0337 461.9466,647.1151 462.0443,647.2127 C462.1419,647.3267 462.321,647.3918 462.4837,647.3918 C462.6953,647.3918 462.8743,647.2941 463.0046,647.1313 C463.0859,647.0174 463.1185,646.8872 463.1185,646.5617 L463.1185,645.52 C463.1185,645.2108 463.1022,645.1131 463.0208,644.9992 C462.9069,644.8039 462.7116,644.6899 462.4837,644.6899 C462.2721,644.6899 462.1257,644.7713 461.9629,644.9992 L461.8327,644.9504 Z " fill="#FFFFFF"/><text fill="#FFFFFF" font-family="Verdana" font-size="11.4583" lengthAdjust="spacing" textLength="130.2083" x="483.8542" y="652.3026">ActualImplementation</text><line style="stroke:#2196F3;stroke-width:1.0416666666666667;" x1="446.3542" x2="626.5625" y1="670.6299" y2="670.6299"/><line style="stroke:#2196F3;stroke-width:1.0416666666666667;" x1="446.3542" x2="626.5625" y1="678.9632" y2="678.9632"/></g><g id="elem_GMN17"><path d="M473.4375,934.8958 L473.4375,972.3633 A4.1667,4.1667 0 0 0 477.6042,976.5299 L789.0625,976.5299 A4.1667,4.1667 0 0 0 793.2292,972.3633 L793.2292,941.1458 L782.8125,930.7292 L477.6042,930.7292 A4.1667,4.1667 0 0 0 473.4375,934.8958 " fill="url(#ghsea4ke5rddk2)" filter="url(#fhsea4ke5rddk)" style="stroke:#9C27B0;stroke-width:1.0416666666666667;"/><path d="M782.8125,930.7292 L782.8125,939.0625 A2.0833,2.0833 0 0 0 784.8958,941.1458 L793.2292,941.1458 L782.8125,930.7292 " fill="url(#ghsea4ke5rddk2)" style="stroke:#9C27B0;stroke-width:1.0416666666666667;"/><text fill="#FFFFFF" font-family="Verdana" font-size="12.5" lengthAdjust="spacing" textLength="277.0833" x="490.1042" y="957.9569">Implementation with grpc or http connection</text></g><g id="elem_GMN20"><path d="M16.6667,20.8333 L16.6667,58.3008 A4.1667,4.1667 0 0 0 20.8333,62.4674 L184.375,62.4674 L188.5417,125.6292 L192.7083,62.4674 L356.25,62.4674 A4.1667,4.1667 0 0 0 360.4167,58.3008 L360.4167,27.0833 L350,16.6667 L20.8333,16.6667 A4.1667,4.1667 0 0 0 16.6667,20.8333 " fill="url(#ghsea4ke5rddk2)" filter="url(#fhsea4ke5rddk)" style="stroke:#9C27B0;stroke-width:1.0416666666666667;"/><path d="M350,16.6667 L350,25 A2.0833,2.0833 0 0 0 352.0833,27.0833 L360.4167,27.0833 L350,16.6667 " fill="url(#ghsea4ke5rddk2)" style="stroke:#9C27B0;stroke-width:1.0416666666666667;"/><text fill="#FFFFFF" font-family="Verdana" font-size="12.5" lengthAdjust="spacing" textLength="301.0417" x="33.3333" y="43.8944">Custom user wrapper implementation (optional)</text></g><!--reverse link LoadBalancingServiceFactory to RateLimitingServiceFactory--><g id="link_LoadBalancingServiceFactory_RateLimitingServiceFactory"><path codeLine="13" d="M432.8382,448.5166 C443.4049,467.6999 451.0677,481.6094 461.651,500.8229 " fill="none" id="LoadBalancingServiceFactory-backto-RateLimitingServiceFactory" style="stroke:#2196F3;stroke-width:3.125;"/><polygon fill="none" points="426.8073,437.5677,426.1731,445.0525,432.8382,448.5166,433.4724,441.0318,426.8073,437.5677" style="stroke:#2196F3;stroke-width:3.125;"/></g><!--reverse link AtomicAwareNodeBlockingServiceFactory to LoadBalancingServiceFactory--><g id="link_AtomicAwareNodeBlockingServiceFactory_LoadBalancingServiceFactory"><path codeLine="14" d="M385.6421,324.5238 C391.4942,343.7071 395.4313,356.6094 401.2927,375.8229 " fill="none" id="AtomicAwareNodeBlockingServiceFactory-backto-LoadBalancingServiceFactory" style="stroke:#2196F3;stroke-width:3.125;"/><polygon fill="none" points="381.9948,312.5677,379.8331,319.7615,385.6421,324.5238,387.8038,317.33,381.9948,312.5677" style="stroke:#2196F3;stroke-width:3.125;"/></g><!--reverse link CustomNodeBlockingServiceFactory to AtomicAwareNodeBlockingServiceFactory--><g id="link_CustomNodeBlockingServiceFactory_AtomicAwareNodeBlockingServiceFactory"><path codeLine="15" d="M243.5746,194.5015 C272.4558,213.7556 299.5125,231.7938 328.376,251.0354 " fill="none" id="CustomNodeBlockingServiceFactory-backto-AtomicAwareNodeBlockingServiceFactory" style="stroke:#2196F3;stroke-width:3.125;"/><polygon fill="none" points="233.174,187.5677,236.063,194.5015,243.5746,194.5015,240.6855,187.5677,233.174,187.5677" style="stroke:#2196F3;stroke-width:3.125;"/></g><!--reverse link RateLimitingServiceFactory to ActualImplementation--><g id="link_RateLimitingServiceFactory_ActualImplementation"><path codeLine="16" d="M497.6052,573.8605 C506.7094,593.0438 513.1469,606.6094 522.2656,625.8229 " fill="none" id="RateLimitingServiceFactory-backto-ActualImplementation" style="stroke:#2196F3;stroke-width:3.125;"/><polygon fill="none" points="492.2458,562.5677,491.1613,570.0006,497.6052,573.8605,498.6898,566.4276,492.2458,562.5677" style="stroke:#2196F3;stroke-width:3.125;"/></g><!--link LoadBalancingServiceFactory to NodeBlockingServiceFactory--><g id="link_LoadBalancingServiceFactory_NodeBlockingServiceFactory"><path codeLine="19" d="M388.1406,437.8615 C376.0958,455.4573 361.9271,478.5781 353.125,501.0417 C317.4438,592.1073 298.2318,680.7603 284.9464,767.8488 " fill="none" id="LoadBalancingServiceFactory-to-NodeBlockingServiceFactory" style="stroke:#2196F3;stroke-width:3.125;stroke-dasharray:7.0,7.0;"/><polygon fill="none" points="282.1188,786.3844,291.1249,768.7913,278.7678,766.9063,282.1188,786.3844" style="stroke:#2196F3;stroke-width:3.125;"/></g><!--link AtomicAwareNodeBlockingServiceFactory to NodeBlockingServiceFactory--><g id="link_AtomicAwareNodeBlockingServiceFactory_NodeBlockingServiceFactory"><path codeLine="20" d="M309.9823,312.6219 C276.2979,333.3667 241.6667,364.6771 241.6667,405.7292 C241.6667,405.7292 241.6667,405.7292 241.6667,657.8125 C241.6667,699.5094 242.5271,725.7325 245.5354,767.6346 " fill="none" id="AtomicAwareNodeBlockingServiceFactory-to-NodeBlockingServiceFactory" style="stroke:#2196F3;stroke-width:3.125;stroke-dasharray:7.0,7.0;"/><polygon fill="none" points="246.8781,786.3365,251.7694,767.187,239.3015,768.0822,246.8781,786.3365" style="stroke:#2196F3;stroke-width:3.125;"/></g><!--link CustomNodeBlockingServiceFactory to NodeBlockingServiceFactory--><g id="link_CustomNodeBlockingServiceFactory_NodeBlockingServiceFactory"><path codeLine="21" d="M180.5469,187.8802 C174.6719,212.6188 167.7083,248.6958 167.7083,280.7292 C167.7083,280.7292 167.7083,280.7292 167.7083,657.8125 C167.7083,700.5958 171.4111,727.3232 184.1559,768.541 " fill="none" id="CustomNodeBlockingServiceFactory-to-NodeBlockingServiceFactory" style="stroke:#2196F3;stroke-width:3.125;stroke-dasharray:7.0,7.0;"/><polygon fill="none" points="189.6948,786.4542,190.127,766.6947,178.1848,770.3872,189.6948,786.4542" style="stroke:#2196F3;stroke-width:3.125;"/></g><!--link RateLimitingServiceFactory to NodeBlockingServiceFactory--><g id="link_RateLimitingServiceFactory_NodeBlockingServiceFactory"><path codeLine="22" d="M461.2927,562.8927 C451.2042,581.0833 438.2156,604.7927 427.0833,626.0417 C399.9375,677.8542 379.4996,717.957 353.7392,769.5195 " fill="none" id="RateLimitingServiceFactory-to-NodeBlockingServiceFactory" style="stroke:#2196F3;stroke-width:3.125;stroke-dasharray:7.0,7.0;"/><polygon fill="none" points="345.3594,786.2927,359.3303,772.3128,348.1481,766.7262,345.3594,786.2927" style="stroke:#2196F3;stroke-width:3.125;"/></g><!--link ActualImplementation to NodeBlockingServiceFactory--><g id="link_ActualImplementation_NodeBlockingServiceFactory"><path codeLine="23" d="M508.7875,687.701 C486.3604,711.926 465.5454,734.41 430.4017,772.3694 " fill="none" id="ActualImplementation-to-NodeBlockingServiceFactory" style="stroke:#2196F3;stroke-width:3.125;stroke-dasharray:7.0,7.0;"/><polygon fill="none" points="417.6635,786.1281,434.9879,776.6155,425.8155,768.1234,417.6635,786.1281" style="stroke:#2196F3;stroke-width:3.125;"/><text fill="#222222" font-family="Verdana" font-size="12.5" lengthAdjust="spacing" textLength="32.2917" x="488.5417" y="741.8111">node</text></g><!--link ActualImplementation to GMN17--><g id="link_ActualImplementation_GMN17"><path d="M559.3469,687.599 C565.8344,697.1469 572.399,708.0313 577.0833,718.75 C609.3583,792.5979 624.9396,888.0135 630.6542,930.5042 " fill="none" id="ActualImplementation-GMN17" style="stroke:#2196F3;stroke-width:3.125;stroke-dasharray:7.0,7.0;"/></g><!--SRC=[ZLFRRi8m37tFLtXly00VmAH9W3O92KtJBX_WfO56Q-CeTUdGjdzVsX54A6leY-lu-DW-SMuuLwM24bavZK8RRpSe5JnIfXO5oGzjjY_AxRHK3oYPt1w-1FZlzVDm31p-HkFRBhGamyw30q36_bauPCsppAcg2aaOkG7KjhKo6mee4_i1zkJq3kK-e6pa1b0tth7U-waNGMIEsjplbE4Ot3yFQM-iYoEsFd5Qm8yGQy9iWGKQsLUN9XDuzjUnrgNcNbZCcKejvmqwDN15BSb04R6iAy-J8BYgbFY_rpyIoJKMgz8MViyC8sioObY1wVJxRc3_hfGWnPAK84KmC7XoWWkYf99WrYsx48ROBo2nxnveSr7W6PnnDvfps3ehWHpapBPzaqR9xZOwGYRRigLKcHqGK5VAGUFGMczrN6r4jhLOZ7y1]--></g></svg>